<svg xmlns="http://www.w3.org/2000/svg" height="1769" width="3477" viewBox="0 0 3477 1769">
  <path fill="#f2f2f2" fill-rule="evenodd" stroke="#007f00" stroke-width="2.44642" paint-order="markers stroke fill" d="M158.76079 112.01749h3086.2341v1538.1194H158.76079z"/>
  <g fill="#fcf9c6" stroke="#000">
    <path d="M1375 985v650h405V985h-309z" stroke-width="2"/>
    <path stroke-width="1.97793" d="M118 598h401v538H118z"/>
    <path stroke-width="2.02443" d="M110.01221 112.01221h408.97556v497.97556H110.01221z"/>
    <path stroke-width="2" d="M1019 1136h356v498h-356zm-361 1h361v497H658zm-546 0v455h39v104h284v38h193v-33h27v-564z"/>
    <path stroke-width="1.96559" d="M1994 1407.9829h312v226.01712h-312z"/>
    <path d="M2406.0324 1260.023v147.9818h-90.0094v225.9722h313.2626v-373.954z" stroke-width="2.04596"/>
    <path d="M2629.3086 999v635H3023v84h382.3008v-185H3405v-421h-92v421h-20V999z" stroke-width="2.00525"/>
    <path d="M3037.8438 740.05078V1004H3307v88h98.3008v-88H3410V740.05078z" stroke-width="2.05094"/>
    <path stroke-width="2.00629" d="M3039.0032 439.00314h273.99371v291.99371H3039.0032z"/>
    <path stroke-width="2.00921" d="M2970.0044 129.01242h324.99078v319.98297H2970.0044z"/>
    <path stroke-width="2" d="M2259 129.01242h711.00439v318.99539H2259z"/>
    <path stroke-width="2.00718" d="M356.0036 18.00359h2310v93.99282h-2310z"/>
    <path d="M25 25v77H8v870h113V114h218V25z" stroke-width="2"/>
    <path stroke-width="2.01183" d="M2312.0059 1005.0059h317.29675v253.98817H2312.0059z"/>
    <path stroke-width="2" d="M1993.8926 987.16602h329.24222V1300H1993.8926z"/>
    <path stroke-width=".25123" d="M3294.0376 1266.0376h18.33751v152.55933h-18.33751z"/>
  </g>
  <g fill="#fcf9c6" stroke="#000">
    <path stroke-width="2" d="M1615.8177 305.00079h400.21915v264.19806H1615.8177zm400.7761 120.81208h132.41998v327.41998H2016.5938z"/>
    <path stroke-width="2" d="M1614.9822 569.20123h401.81696V753.018H1614.9822z"/>
    <path d="M1614.9811 304.94613v264.07459h15.0312v-.0352h370.5257v.0352h15.499V305.00078h-302.8333v15.33539h287.3343v233.5677h-370.5277V320.07658h11.1307v-15.13045z" stroke-width="2.14506"/>
    <path stroke-width="2" d="M2291 546h636v333h-636z"/>
    <path stroke-width="1.66917" d="M1631.3346 986.83459h201.33083v8.33083H1631.3346z"/>
    <path stroke-width="2" d="M642 1137h295v12H642zm10 13h14v482h-14zm362 1h12v482h-12zm89-15h271v13h-271zm-99-1h32v14h-32z"/>
    <path d="M3037.8438 725v28h8.1328v-9H3294v-14h-248.0234v-5z" stroke-width="1.97633"/>
    <path stroke-width="2.01019" d="M3038.0051 823.00507h7.98981v174.98981h-7.98981z"/>
    <path d="M3313 729v20h92.3008v139H3396v20h9.3008v184H3313V908h17v-21h-36v379h19v-155h92.3008v607H3023v-84h-2v-1h-373.709V986.0078H2632V986h-324v140h-294v18h142v138.1348h-29.1348v18h75v-18H2169V1144h139v137.8652h-40.1348v18.2696h55.2696V1300H2327v-295h302.3086v239H2393v16h236.3086v374H2326v-207h4v-19h-240v19h216v207h-288v-234h-24v254h1006v86h2.1699v1H3424v-1.3008h.6992V730.30078H3406V729zm83 837v20h9v-20z" stroke-width="1.99253"/>
    <path d="M3293 1418v218h-48v81h23v-63h46v-68h13v-20h-13v-148zM724 986h484v21H724zm651-673h17v520h-17zM506 691h15v444h-15zm-388 445h457v14H118z" stroke-width="2"/>
    <path d="M110 562v665h.0293v364.9707H151V1714h274v37h204v-36h42v-61h1109v-645h1v-23h-172v23h150v624h-364v-624h75v-24h-95v648H652v61h-45v39H447v-39H170.96875v-118.2188H128.9707V1227H129V562zm-2-450h21v291h-21z" stroke-width="2"/>
    <path stroke-width="2" d="M108 112h250v20H108z"/>
    <path stroke-width="2" d="M335 2h23v130h-23z"/>
    <path d="M505.42773 245.92969V600H124v14h381.42773v10.07422h15.14454V245.92969z" stroke-width="1.85465"/>
    <path stroke-width="2.1155" d="M505.3363 120H521v24h-15.6637z"/>
    <path stroke-width="2" d="M479 112h528v20H479z"/>
    <path stroke-width="2.22773" d="M1764 112h633.99408v20H1764z"/>
    <path stroke-width="2" d="M2397.9941 112h914.00592v20H2397.9941zM0 2h978v23H0z"/>
    <path d="M977.98047 1.98047v23.03906H2175.0195V1.98047zm1197.06053.02148v22.97657h502.9375V2.00195z" stroke-width="1.95964"/>
    <path stroke-width="2" d="M0 25h25v684H0z"/>
    <path stroke-width="1.92752" d="M-.03624 680.96375h25.07248v307.07248H-.03624z"/>
    <path stroke-width="2" d="M-.03624 970H121v18.03626H-.03624zm1994.04214 30.1074h19.9882v305.88669h-19.9882zm-53.3399-12.94138h53.2266v8h-53.2266zm53.2266-.27344h248.2148v13.2148h-248.2148zm129.6777 13.21482h12.8594v7.3223h-12.8594zM2125 1064h12v62h-12z"/>
    <path stroke-width="2" d="M2013.9941 1281.8652h42.8711v18.2696h-42.8711zM2393 1260h23v167h-23zm363-261h537v12h-537zm539-866h18v633h-18zm-484 305h163v11h-163zm228 .8421h254V453h-254zm-81.9922-305.83429h13.9844V438h-13.9844zM3039 453h6v205h-6zm-544-322h12v305h-12zm-150 306h309v12h-309zm312-411h21v136h-21zm22 121h61v14h-61zm47 15h16v276h-16zm-3 276h22v11h-22zm-464-308h9.99463v319.99457H2259zm-1130-18h510v20h-510z"/>
    <path stroke-width="1.86929" d="M2258.9292 437.9292h16.13071v12.13071h-16.13071z"/>
  </g>
  <path d="M2985.2495 810.4798v80.52023h-44V810.4798zm0-98.96411v54.96413h-44v-54.96413zm-175.426-236.51566h131.426v44h-131.426zM2698.6509 475h67.1726v44h-67.1726zm-243.7041 0h199.704v44h-199.704zm-256.6973 44v372h-44V519zm535.075 372h207.925v44h-207.925zm-535.075 0h491.075v44h-491.075zm-295.9988 0h251.9988v44h-251.9988zm-807.1278 165h163.1278v44h-163.1278zm-102.11204 0h58.11214v44h-58.11214zM597.25079 675.13452V891h-44V675.13452zM1302.2507 187h166.0001v44h-166.0001zm0 704h166.0001v44h-166.0001zm600 44v720h-44V935zm1082.9988-168.5202h173v44h-173zm0-98.96411h173v44h-173zm86.8834-302.1995l-94.8868 134.98704-35.9965-25.30314 94.8868-134.98704zm-262.3094-55.31616v165h-44v-165zM2698.6509 310v165h-44V310zm-243.7041 0v165h-44V310zm278.3777 625v165h-44V935zm-1638.2016 165v165h-44v-165zm-102.11204 0v165h-44v-165zm-395.76007 0v165h-44v-165zm-217-468.86548h173v44h-173zm0-444.13452h173v44h-173zM2985.2495 519v148.5157h-44V519zm-787-44h212.6973v44h-212.6973zM597.25079 935v120.9999h-44V935zm704.99991 0v121h-44V935zm-704.99991 121h351.76007v44H597.25079zm0-825v400.13452h-44V231zm704.99991 0v660h-44V231zM597.25079 891h661.00001v44H597.25079zm0-704h661.00001v44H597.25079zm914.99991 704h346v44h-346zm685.9988-660v244h-44V231zm-685.9988 0v660h-44V231zm0-44h641.9988v44h-641.9988z" opacity=".5" fill="#c6d9ec"/>
  <path d="M2689.3245 1100h44v44h-44zm468.925-333.5202h44v44h-44zm0-98.96411h44v44h-44zM3036.1365 296.013h44v44h-44zm-270.313-30.01297h44v44h-44zM2654.6509 266h44v44h-44zm-243.7041 0h44v44h-44zm-1359.8239 999h44v44h-44zm-102.11204 0h44v44h-44zm-395.76007 0h44v44h-44zm-217-633.86548h44v44h-44zm0-444.13452h44v44h-44zM2941.2495 667.51569h44v44h-44zM2154.2495 475h44v44h-44zm256.6973 0h44v44h-44zm243.7041 0h44v44h-44zm111.1726.00003h44v44h-44zm175.426 0h44v44h-44zm0 291.47977h44v44h-44zm0 124.5202h44v44h-44zm-251.925 0h44v44h-44zm-535.075 0h44v44h-44zm-295.9988 0h44v44h-44zm-390 0h44v44h-44zm-210 0h44v44h-44zm-207.1278 165h44v44h-44zm207.1278 0h44v44h-44zm-309.23984 0h44v44h-44zm-395.76007 0h44v44h-44zm0-165h44v44h-44zm0-259.86548h44v44h-44zM2154.2495 187h44v44h-44zm-685.9988 0h44v44h-44zm-210 0h44v44h-44zm-704.99991 0h44v44h-44z" opacity=".5" fill="#c6d9ec"/>
  <path paint-order="markers stroke fill" d="M1018.9434 284.9433h128.11336v565.1134H1018.9434zm-258.0001-.00022h128.11336v565.1134H760.9433z" fill="#e5ff80" stroke="#007f00" stroke-width="1.887" fill-rule="evenodd"/>
</svg>
